<svg width="250.00000000000003" height="38" xmlns="http://www.w3.org/2000/svg">
 <style type="text/css">.st0{fill:#14BF98;}
	.st1{fill:#FFFFFF;}</style>

 <title>logo</title>
 <g>
  <title>background</title>
  <rect fill="none" id="canvas_background" height="40" width="252" y="-1" x="-1"/>
 </g>
 <g>
  <title>Layer 1</title>
  <polygon id="svg_1" points="5.7,15.7 1.9,15.7 0,19 1.9,22.3 5.7,22.3 7.7,19 " class="st0"/>
  <polygon id="svg_2" points="10.3,7.8 6.5,7.8 4.6,11.1 6.5,14.4 10.3,14.4 12.2,11.1 " class="st0"/>
  <polygon id="svg_3" points="14.8,0 11,0 9.1,3.3 11,6.6 14.8,6.6 16.7,3.3 " class="st0"/>
  <polygon id="svg_4" points="23.9,0 20,0 18.1,3.3 20,6.6 23.9,6.6 25.8,3.3 " class="st0"/>
  <polygon id="svg_5" points="19.1,8.6 16.2,8.6 14.7,11.1 16.2,13.6 19.1,13.6 20.6,11.1 " class="st0"/>
  <polygon id="svg_6" points="28.2,8.6 25.2,8.6 23.8,11.1 25.2,13.6 28.2,13.6 29.6,11.1 " class="st0"/>
  <polygon id="svg_7" points="18.8,25.7 16.5,25.7 15.4,27.7 16.5,29.7 18.8,29.7 19.9,27.7 " class="st0"/>
  <polygon id="svg_8" points="27.9,25.7 25.6,25.7 24.4,27.7 25.6,29.7 27.9,29.7 29,27.7 " class="st0"/>
  <polygon id="svg_9" points="22.9,34.7 21,34.7 20,36.3 21,38 22.9,38 23.9,36.3 " class="st0"/>
  <polygon id="svg_10" points="32.9,0 29.1,0 27.2,3.3 29.1,6.6 32.9,6.6 34.9,3.3 " class="st0"/>
  <polygon id="svg_11" points="14.5,16.2 11.3,16.2 9.8,18.9 11.3,21.6 14.5,21.6 16,18.9 " class="st0"/>
  <polygon id="svg_12" points="32.6,16.2 29.5,16.2 27.9,18.9 29.5,21.6 32.6,21.6 34.2,18.9 " class="st0"/>
  <polygon id="svg_13" points="23.3,16.6 20.6,16.6 19.3,18.9 20.6,21.2 23.3,21.2 24.6,18.9 " class="st0"/>
  <polygon id="svg_14" points="37.4,7.8 33.6,7.8 31.7,11.1 33.6,14.4 37.4,14.4 39.3,11.1 " class="st0"/>
  <polygon id="svg_15" points="9.7,25 6.6,25 5,27.7 6.6,30.4 9.7,30.4 11.3,27.7 " class="st0"/>
  <polygon id="svg_16" points="12.4,34.9 10.6,34.9 9.7,36.5 10.6,38 12.4,38 13.3,36.5 " class="st0"/>
  <polygon id="svg_17" points="42,15.7 38.2,15.7 36.3,19 38.2,22.3 42,22.3 43.9,19 " class="st0"/>
  <polygon id="svg_18" points="37.3,25 34.2,25 32.6,27.7 34.2,30.4 37.3,30.4 38.9,27.7 " class="st0"/>
  <polygon id="svg_19" points="33.3,33.7 30.8,33.7 29.5,35.8 30.8,38 33.3,38 34.5,35.8 " class="st0"/>
  <text font-weight="normal" font-style="italic" xml:space="preserve" text-anchor="start" font-family="Helvetica, Arial, sans-serif" font-size="30" id="svg_24" y="29.29412" x="44.85293" stroke-opacity="null" stroke-width="0" stroke="null" fill="#ffffff">MySecretNotes</text>
 </g>
</svg>